<?xml version="1.0" encoding="utf-8"?>
<!-- Generator: Adobe Illustrator 15.1.0, SVG Export Plug-In . SVG Version: 6.00 Build 0)  -->
<!DOCTYPE svg PUBLIC "-//W3C//DTD SVG 1.1//EN" "http://www.w3.org/Graphics/SVG/1.1/DTD/svg11.dtd">
<svg version="1.1" id="Layer_1" xmlns="http://www.w3.org/2000/svg" xmlns:xlink="http://www.w3.org/1999/xlink" x="0px" y="0px"
	 width="180px" height="180px" viewBox="0 0 180 180" enable-background="new 0 0 180 180" xml:space="preserve">
<g>
	<path fill="#F6DF18" d="M0,171c0,4.97,4.03,9,9,9h162c4.971,0,9-4.03,9-9V9c0-4.971-4.029-9-9-9H9C4.03,0,0,4.029,0,9V171z"/>
</g>
<g>
	<path d="M13.174,130.623h6.474l0.54,3.398h0.216c1.15-1.079,2.409-2.023,3.776-2.832c1.367-0.81,2.967-1.214,4.801-1.214
		c2.913,0,5.025,0.953,6.339,2.859c1.312,1.906,1.969,4.55,1.969,7.93v16.615h-7.93v-15.59c0-1.942-0.262-3.272-0.782-3.992
		c-0.522-0.72-1.358-1.079-2.509-1.079c-1.007,0-1.87,0.225-2.589,0.674c-0.72,0.45-1.51,1.089-2.374,1.915v18.072h-7.93V130.623z"
		/>
	<path d="M41.495,153.118l11.221-16.292h-9.98v-6.203h19.852v4.207l-11.221,16.346h11.599v6.204H41.495V153.118z"/>
	<path d="M67.55,153.064c0-1.438,0.458-2.635,1.376-3.588c0.917-0.952,2.058-1.43,3.425-1.43c1.366,0,2.509,0.478,3.426,1.43
		c0.917,0.953,1.375,2.149,1.375,3.588c0,1.402-0.458,2.581-1.375,3.533s-2.06,1.43-3.426,1.43c-1.367,0-2.508-0.478-3.425-1.43
		C68.009,155.646,67.55,154.467,67.55,153.064z"/>
	<path d="M84.003,130.623h7.93v26.595c0,1.475-0.154,2.859-0.459,4.154c-0.306,1.295-0.828,2.428-1.564,3.398
		c-0.737,0.971-1.718,1.744-2.94,2.319c-1.223,0.575-2.751,0.863-4.585,0.863c-1.115,0-2.041-0.072-2.778-0.216
		c-0.737-0.144-1.376-0.323-1.916-0.539l1.403-5.826c0.36,0.107,0.701,0.197,1.025,0.27c0.324,0.071,0.683,0.107,1.079,0.107
		c1.042,0,1.771-0.342,2.185-1.024c0.413-0.684,0.621-1.78,0.621-3.291V130.623z M87.995,126.685c-1.331,0-2.427-0.386-3.291-1.159
		s-1.295-1.771-1.295-2.994s0.432-2.212,1.295-2.968c0.863-0.755,1.96-1.133,3.291-1.133c1.33,0,2.428,0.378,3.291,1.133
		c0.862,0.756,1.294,1.745,1.294,2.968s-0.432,2.221-1.294,2.994C90.423,126.299,89.325,126.685,87.995,126.685z"/>
	<path d="M100.133,149.342c1.223,0.936,2.392,1.637,3.507,2.104c1.114,0.468,2.247,0.701,3.398,0.701c1.187,0,2.05-0.197,2.59-0.594
		c0.539-0.396,0.809-0.952,0.809-1.672c0-0.432-0.153-0.818-0.458-1.16c-0.307-0.342-0.72-0.656-1.241-0.944
		c-0.521-0.287-1.105-0.548-1.753-0.782c-0.647-0.233-1.313-0.494-1.996-0.782c-0.828-0.323-1.654-0.701-2.481-1.133
		c-0.828-0.432-1.583-0.962-2.266-1.591c-0.684-0.629-1.241-1.367-1.673-2.212s-0.646-1.825-0.646-2.94
		c0-1.222,0.242-2.354,0.729-3.398c0.484-1.043,1.177-1.924,2.076-2.644c0.898-0.719,1.978-1.285,3.236-1.699
		c1.259-0.413,2.661-0.62,4.208-0.62c2.05,0,3.848,0.351,5.395,1.052c1.546,0.701,2.895,1.483,4.046,2.347l-3.561,4.747
		c-0.971-0.719-1.924-1.276-2.858-1.672c-0.936-0.396-1.871-0.594-2.806-0.594c-2.015,0-3.021,0.701-3.021,2.104
		c0,0.432,0.143,0.801,0.432,1.106c0.287,0.306,0.674,0.585,1.159,0.836c0.486,0.252,1.043,0.495,1.673,0.729
		c0.629,0.234,1.285,0.477,1.969,0.729c0.863,0.323,1.717,0.692,2.563,1.105c0.845,0.414,1.618,0.927,2.319,1.537
		c0.701,0.612,1.268,1.358,1.699,2.239c0.432,0.882,0.647,1.934,0.647,3.155c0,1.224-0.234,2.356-0.701,3.399
		c-0.468,1.043-1.169,1.951-2.104,2.724c-0.936,0.774-2.086,1.385-3.453,1.834s-2.949,0.675-4.747,0.675
		c-1.763,0-3.569-0.343-5.421-1.025c-1.853-0.683-3.462-1.582-4.829-2.697L100.133,149.342z"/>
	<path d="M125.083,155.492c-1.24-3.992-1.861-8.362-1.861-13.109s0.621-9.116,1.861-13.108c1.241-3.992,2.994-7.84,5.26-11.545
		l4.963,2.05c-1.979,3.525-3.417,7.211-4.315,11.06c-0.899,3.849-1.349,7.696-1.349,11.544c0,3.849,0.449,7.696,1.349,11.545
		c0.898,3.848,2.337,7.533,4.315,11.059l-4.963,2.05C128.077,163.332,126.324,159.483,125.083,155.492z"/>
	<path d="M144.854,153.928c0.898-3.849,1.349-7.696,1.349-11.545c0-3.848-0.45-7.695-1.349-11.544
		c-0.899-3.849-2.355-7.534-4.369-11.06l4.963-2.05c2.266,3.705,4.019,7.553,5.26,11.545c1.24,3.992,1.86,8.361,1.86,13.108
		s-0.62,9.117-1.86,13.109c-1.241,3.991-2.994,7.84-5.26,11.544l-4.963-2.05C142.498,161.461,143.954,157.775,144.854,153.928z"/>
	<path d="M158.933,163.638c1.978-0.72,3.488-1.654,4.531-2.806s1.564-2.409,1.564-3.775h-0.432c-1.259,0-2.373-0.387-3.345-1.16
		c-0.971-0.773-1.456-1.879-1.456-3.317c0-1.367,0.485-2.463,1.456-3.291c0.972-0.827,2.14-1.241,3.507-1.241
		c1.798,0,3.164,0.657,4.1,1.97s1.403,3.155,1.403,5.529c0,2.984-0.828,5.547-2.482,7.688c-1.654,2.139-4.064,3.677-7.229,4.612
		L158.933,163.638z M159.742,135.586c0-1.438,0.458-2.634,1.375-3.588c0.917-0.952,2.059-1.43,3.426-1.43
		c1.366,0,2.509,0.478,3.426,1.43c0.917,0.954,1.375,2.149,1.375,3.588c0,1.402-0.458,2.581-1.375,3.533
		c-0.917,0.953-2.06,1.43-3.426,1.43c-1.367,0-2.509-0.477-3.426-1.43C160.2,138.167,159.742,136.988,159.742,135.586z"/>
</g>
</svg>
